HIERARCHY
ROOT joint_Root
{
	OFFSET 0.0 0.0 0.0
	CHANNELS 6 Xposition Yposition Zposition Zrotation Xrotation Yrotation 
	JOINT Hips
	{
		OFFSET 4.5925 91.4895 -427.239
		CHANNELS 6 Xposition Yposition Zposition Zrotation Xrotation Yrotation 
		JOINT Spine
		{
			OFFSET 15.7357 0.0 0.0
			CHANNELS 6 Xposition Yposition Zposition Zrotation Xrotation Yrotation 
			JOINT Chest
			{
				OFFSET 8.98455 -0.406207 0.0
				CHANNELS 6 Xposition Yposition Zposition Zrotation Xrotation Yrotation 
				JOINT Neck
				{
					OFFSET 16.3773 0.0 0.0
					CHANNELS 6 Xposition Yposition Zposition Zrotation Xrotation Yrotation 
					JOINT Head
					{
						OFFSET 6.45672 0.0 0.0
						CHANNELS 6 Xposition Yposition Zposition Zrotation Xrotation Yrotation 
						End Site
						{
							OFFSET 0.0 0.0 0.0
						}
					}
				}
				JOINT Shoulder_L
				{
					OFFSET 12.9942 -0.242716 4.98039
					CHANNELS 6 Xposition Yposition Zposition Zrotation Xrotation Yrotation 
					JOINT UpperArm_L
					{
						OFFSET 5.34809 0.0 0.0
						CHANNELS 6 Xposition Yposition Zposition Zrotation Xrotation Yrotation 
						JOINT LowerArm_L
						{
							OFFSET 24.3286 1.87007e-05 0.0
							CHANNELS 6 Xposition Yposition Zposition Zrotation Xrotation Yrotation 
							JOINT Hand_L
							{
								OFFSET 22.2916 0.0 0.0
								CHANNELS 6 Xposition Yposition Zposition Zrotation Xrotation Yrotation 
								End Site
								{
									OFFSET 0.0 0.0 0.0
								}
							}
						}
					}
				}
				JOINT Shoulder_R
				{
					OFFSET 12.9945 -0.242716 -4.98039
					CHANNELS 6 Xposition Yposition Zposition Zrotation Xrotation Yrotation 
					JOINT UpperArm_R
					{
						OFFSET -5.34813 0.0 0.0
						CHANNELS 6 Xposition Yposition Zposition Zrotation Xrotation Yrotation 
						JOINT LowerArm_R
						{
							OFFSET -24.3289 0.000322201 0.0
							CHANNELS 6 Xposition Yposition Zposition Zrotation Xrotation Yrotation 
							JOINT Hand_R
							{
								OFFSET -22.2915 -0.000108084 0.0
								CHANNELS 6 Xposition Yposition Zposition Zrotation Xrotation Yrotation 
								End Site
								{
									OFFSET 0.0 0.0 0.0
								}
							}
						}
					}
				}
			}
		}
		JOINT UpperLeg_L
		{
			OFFSET -2.19248 -6.46944 0.0
			CHANNELS 6 Xposition Yposition Zposition Zrotation Xrotation Yrotation 
			JOINT LowerLeg_L
			{
				OFFSET 39.0811 0.0 -1.23785e-05
				CHANNELS 6 Xposition Yposition Zposition Zrotation Xrotation Yrotation 
				JOINT Foot_L
				{
					OFFSET 40.9854 0.0 -1.26872e-05
					CHANNELS 6 Xposition Yposition Zposition Zrotation Xrotation Yrotation 
					JOINT Toes_L
					{
						OFFSET 11.7543 0.0 0.0
						CHANNELS 6 Xposition Yposition Zposition Zrotation Xrotation Yrotation 
						End Site
						{
							OFFSET 0.0 0.0 0.0
						}
					}
				}
			}
		}
		JOINT UpperLeg_R
		{
			OFFSET -2.19251 6.46944 0.0
			CHANNELS 6 Xposition Yposition Zposition Zrotation Xrotation Yrotation 
			JOINT LowerLeg_R
			{
				OFFSET -39.0811 -0.00228153 -0.0401928
				CHANNELS 6 Xposition Yposition Zposition Zrotation Xrotation Yrotation 
				JOINT Foot_R
				{
					OFFSET -40.9854 0.0 0.0
					CHANNELS 6 Xposition Yposition Zposition Zrotation Xrotation Yrotation 
					JOINT Toes_R
					{
						OFFSET -11.7543 0.0 0.0
						CHANNELS 6 Xposition Yposition Zposition Zrotation Xrotation Yrotation 
						End Site
						{
							OFFSET 0.0 0.0 0.0
						}
					}
				}
			}
		}
	}
}
MOTION
Frames:	6
Frame Time:	0.0333333
0.000000 0.000000 0.000000 0.000000 0.000000 -0.000000 -2.327250 89.599300 -1.369880 88.920300 -0.585293 13.264600 15.735700 0.000005 -0.000001 87.902600 78.233100 -88.062000 8.984550 -0.406207 -0.000000 15.752200 -0.860007 -0.200066 16.377300 -0.000001 -0.000001 6.393400 -4.021070 1.884070 6.456720 -0.000001 -0.000000 -1.381960 -3.338890 0.622725 12.994200 -0.242716 4.980390 -91.000000 4.915490 -78.486300 5.348090 -0.000007 -0.000001 -55.866800 41.124500 -28.585000 24.328600 0.000019 0.000005 7.299920 20.141000 -20.406600 22.291600 -0.000001 0.000005 6.724920 5.281490 0.585548 12.994500 -0.242716 -4.980390 89.269900 10.127000 -85.854400 -5.348130 -0.000001 -0.000004 -63.007000 28.182900 -19.260100 -24.328900 0.000322 -0.000009 2.418810 5.888720 -22.387300 -22.291500 -0.000108 -0.000004 16.319900 5.391630 -2.667060 -2.192480 -6.469440 -0.000000 -172.889000 -10.911300 -1.502360 39.081100 -0.000007 -0.000012 -0.256177 0.336088 37.316300 40.985400 -0.000006 -0.000013 -0.762453 4.159030 -72.147300 11.754300 -0.000000 0.000003 -0.000187 -0.001746 -16.643600 -2.192510 6.469440 -0.000001 174.550000 21.074400 -179.188000 -39.081100 -0.002282 -0.040193 -0.199074 0.275563 36.292100 -40.985400 0.000008 0.000006 5.249570 10.111900 -73.578600 -11.754300 -0.000006 -0.000006 -0.003836 -0.049721 -18.595500
0.000000 0.000000 0.000000 0.000000 0.000000 -0.000000 -2.327310 89.601900 -1.362960 88.907400 -0.580458 13.223000 15.735700 0.000005 -0.000001 87.862700 78.227700 -88.039700 8.984550 -0.406207 -0.000000 15.762100 -0.877770 -0.232814 16.377300 -0.000001 -0.000001 6.498850 -4.014530 1.877790 6.456720 -0.000001 -0.000000 -1.354270 -3.355190 0.578593 12.994200 -0.242716 4.980390 -90.978400 4.828000 -78.530300 5.348090 -0.000007 -0.000001 -55.869400 41.152200 -28.610900 24.328600 0.000019 0.000005 7.284850 20.114300 -20.391200 22.291600 -0.000001 0.000005 6.788020 5.282790 0.549757 12.994500 -0.242716 -4.980390 89.277700 10.028400 -85.859200 -5.348130 -0.000001 -0.000004 -63.334000 27.335100 -18.999400 -24.328900 0.000322 -0.000009 2.407930 5.563830 -23.456900 -22.291500 -0.000108 -0.000004 16.867200 5.397860 -2.867820 -2.192480 -6.469440 -0.000000 -172.875000 -10.931200 -1.534190 39.081100 -0.000007 -0.000012 -0.255248 0.334948 37.309700 40.985400 -0.000006 -0.000013 -0.746489 4.212880 -72.150600 11.754300 -0.000000 0.000003 -0.000186 -0.001740 -16.643300 -2.192510 6.469440 -0.000001 174.579000 21.127800 -179.232000 -39.081100 -0.002282 -0.040193 -0.193149 0.267454 36.296300 -40.985400 0.000008 0.000006 5.412690 10.112800 -73.614600 -11.754300 -0.000006 -0.000006 -0.003769 -0.049017 -18.566900
0.000000 0.000000 0.000000 0.000000 0.000000 -0.000000 -2.314620 89.609700 -1.368520 88.930400 -0.591381 13.199600 15.735700 0.000005 -0.000001 87.872000 78.228000 -88.080600 8.984550 -0.406207 -0.000000 15.761500 -0.876191 -0.296263 16.377300 -0.000001 -0.000001 6.605790 -4.007730 1.863000 6.456720 -0.000001 -0.000000 -1.310110 -3.386870 0.574823 12.994200 -0.242716 4.980390 -90.951100 4.719850 -78.593500 5.348090 -0.000007 -0.000001 -56.019000 41.035500 -28.545800 24.328600 0.000019 0.000005 7.345580 20.246300 -20.431100 22.291600 -0.000001 0.000005 6.776580 5.279100 0.650819 12.994500 -0.242716 -4.980390 89.279600 9.942550 -85.834800 -5.348130 -0.000001 -0.000004 -63.623000 26.465200 -18.724700 -24.328900 0.000322 -0.000009 2.487750 5.409960 -24.751800 -22.291500 -0.000108 -0.000004 17.415100 5.408610 -3.217640 -2.192480 -6.469440 -0.000000 -172.900000 -10.975700 -1.541090 39.081100 -0.000007 -0.000012 -0.259313 0.340786 37.269000 40.985400 -0.000006 -0.000013 -0.740232 4.207820 -72.123800 11.754300 -0.000000 0.000003 -0.000199 -0.001840 -16.647000 -2.192510 6.469440 -0.000001 174.553000 21.135200 -179.252000 -39.081100 -0.002282 -0.040193 -0.190204 0.263654 36.274700 -40.985400 0.000008 0.000006 5.394730 10.155200 -73.593900 -11.754300 -0.000006 -0.000006 -0.003672 -0.047986 -18.524900
0.000000 0.000000 0.000000 0.000000 0.000000 -0.000000 -2.301840 89.612000 -1.384600 88.929200 -0.636639 13.111000 15.735700 0.000005 -0.000001 87.827900 78.250200 -88.060400 8.984550 -0.406207 -0.000000 15.716300 -0.894009 -0.341975 16.377300 -0.000001 -0.000001 6.724830 -4.002930 1.859840 6.456720 -0.000001 -0.000000 -1.308580 -3.382440 0.530022 12.994200 -0.242716 4.980390 -90.931000 4.626680 -78.609800 5.348090 -0.000007 -0.000001 -56.061100 40.991800 -28.597500 24.328600 0.000019 0.000005 7.305100 20.239700 -20.332400 22.291600 -0.000001 0.000005 6.743610 5.278840 0.658078 12.994500 -0.242716 -4.980390 89.287000 9.826540 -85.829400 -5.348130 -0.000001 -0.000004 -63.757700 25.835900 -18.566400 -24.328900 0.000322 -0.000009 2.514080 5.107640 -26.261600 -22.291500 -0.000108 -0.000004 17.939600 5.413880 -3.393530 -2.192480 -6.469440 -0.000000 -172.922000 -11.018500 -1.639600 39.081100 -0.000007 -0.000012 -0.256493 0.337060 37.270600 40.985400 -0.000006 -0.000013 -0.732666 4.195990 -72.114500 11.754300 -0.000000 0.000003 -0.000195 -0.001814 -16.646000 -2.192510 6.469440 -0.000001 174.602000 21.136000 -179.374000 -39.081100 -0.002282 -0.040193 -0.184842 0.256231 36.287100 -40.985400 0.000008 0.000006 5.469940 10.141400 -73.596500 -11.754300 -0.000006 -0.000006 -0.003734 -0.048643 -18.551600
0.000000 0.000000 0.000000 0.000000 0.000000 -0.000000 -2.295330 89.619000 -1.389830 88.920300 -0.646354 13.094200 15.735700 0.000005 -0.000001 87.761200 78.251400 -88.019100 8.984550 -0.406207 -0.000000 15.712700 -0.922627 -0.389002 16.377300 -0.000001 -0.000001 6.818270 -4.027710 1.875190 6.456720 -0.000001 -0.000000 -1.298490 -3.401810 0.518306 12.994200 -0.242716 4.980390 -90.905400 4.514390 -78.647600 5.348090 -0.000007 -0.000001 -56.095700 40.942300 -28.668600 24.328600 0.000019 0.000005 7.275500 20.199900 -20.291000 22.291600 -0.000001 0.000005 6.792450 5.279330 0.644718 12.994500 -0.242716 -4.980390 89.286800 9.743020 -85.793100 -5.348130 -0.000001 -0.000004 -63.708600 25.424600 -18.556900 -24.328900 0.000322 -0.000009 2.520980 4.783410 -27.843800 -22.291500 -0.000108 -0.000004 18.452700 5.417320 -3.508490 -2.192480 -6.469440 -0.000000 -172.910000 -11.071500 -1.645080 39.081100 -0.000007 -0.000012 -0.257963 0.339267 37.248200 40.985400 -0.000006 -0.000013 -0.722631 4.204790 -72.099800 11.754300 -0.000000 0.000003 -0.000194 -0.001805 -16.645700 -2.192510 6.469440 -0.000001 174.611000 21.173500 -179.381000 -39.081100 -0.002282 -0.040193 -0.179106 0.248630 36.263900 -40.985400 0.000008 0.000006 5.559120 10.179400 -73.600900 -11.754300 -0.000006 -0.000006 -0.003673 -0.048000 -18.525500
0.000000 0.000000 0.000000 0.000000 0.000000 -0.000000 -2.287290 89.617900 -1.398390 88.895500 -0.708510 13.066300 15.735700 0.000005 -0.000001 87.674200 78.251900 -87.949100 8.984550 -0.406207 -0.000000 15.710200 -0.958883 -0.417944 16.377300 -0.000001 -0.000001 6.851450 -4.000780 1.825800 6.456720 -0.000001 -0.000000 -1.276250 -3.424130 0.530570 12.994200 -0.242716 4.980390 -90.889100 4.434890 -78.651600 5.348090 -0.000007 -0.000001 -56.059700 40.893300 -28.764800 24.328600 0.000019 0.000005 7.303810 20.250200 -20.319800 22.291600 -0.000001 0.000005 6.740640 5.279260 0.646354 12.994500 -0.242716 -4.980390 89.300100 9.632880 -85.824700 -5.348130 -0.000001 -0.000004 -63.716300 24.853100 -18.548700 -24.328900 0.000322 -0.000009 2.758010 4.861820 -29.621500 -22.291500 -0.000108 -0.000004 18.967800 5.421910 -3.663320 -2.192480 -6.469440 -0.000000 -172.893000 -11.073900 -1.674620 39.081100 -0.000007 -0.000012 -0.255925 0.336377 37.265300 40.985400 -0.000006 -0.000013 -0.723779 4.192520 -72.114500 11.754300 -0.000000 0.000003 -0.000195 -0.001811 -16.645900 -2.192510 6.469440 -0.000001 174.635000 21.205000 -179.423000 -39.081100 -0.002282 -0.040193 -0.178491 0.247732 36.270200 -40.985400 0.000008 0.000006 5.620880 10.231100 -73.604200 -11.754300 -0.000006 -0.000006 -0.003756 -0.048876 -18.561100
